<svg xmlns="http://www.w3.org/2000/svg" fill="none" viewBox="0 0 56 56" height="56" width="56">
<rect fill="black" rx="8" height="56" width="56"></rect>
<g clip-path="url(#clip0_2012_1019)">
<path fill="white" d="M34.2999 19.6002C34.2999 18.7729 34.137 17.9536 33.8204 17.1893C33.5038 16.4249 33.0397 15.7304 32.4547 15.1454C31.8697 14.5604 31.1752 14.0964 30.4108 13.7798C29.6465 13.4631 28.8273 13.3002 27.9999 13.3002C27.1726 13.3002 26.3534 13.4631 25.589 13.7798C24.8247 14.0964 24.1302 14.5604 23.5452 15.1454C22.9601 15.7304 22.4961 16.4249 22.1795 17.1893C21.8629 17.9536 21.6999 18.7729 21.6999 19.6002C21.6999 20.4275 21.8629 21.2467 22.1795 22.0111C22.4961 22.7755 22.9601 23.47 23.5452 24.055C24.1302 24.64 24.8247 25.104 25.589 25.4206C26.3534 25.7372 27.1726 25.9002 27.9999 25.9002C28.8273 25.9002 29.6465 25.7372 30.4108 25.4206C31.1752 25.104 31.8697 24.64 32.4547 24.055C33.0397 23.47 33.5038 22.7755 33.8204 22.0111C34.137 21.2467 34.2999 20.4275 34.2999 19.6002ZM19.5999 19.6002C19.5999 17.3724 20.4849 15.2358 22.0602 13.6605C23.6355 12.0852 25.7721 11.2002 27.9999 11.2002C30.2277 11.2002 32.3643 12.0852 33.9396 13.6605C35.5149 15.2358 36.3999 17.3724 36.3999 19.6002C36.3999 21.828 35.5149 23.9646 33.9396 25.5399C32.3643 27.1152 30.2277 28.0002 27.9999 28.0002C25.7721 28.0002 23.6355 27.1152 22.0602 25.5399C20.4849 23.9646 19.5999 21.828 19.5999 19.6002ZM15.3999 42.7002H40.5999C40.5212 37.4699 36.2556 33.2502 30.999 33.2502H25.0009C19.7509 33.2502 15.4852 37.4699 15.3999 42.7002ZM13.2999 42.8511C13.2999 36.3871 18.5368 31.1502 25.0009 31.1502H30.999C37.4631 31.1502 42.6999 36.3871 42.6999 42.8511C42.6999 43.9274 41.8271 44.8002 40.7509 44.8002H15.249C14.1727 44.8002 13.2999 43.9274 13.2999 42.8511Z"></path>
</g>
<defs>
<clipPath id="clip0_2012_1019">
<rect transform="translate(13.2999 11.2002)" fill="white" height="33.6" width="29.4"></rect>
</clipPath>
</defs>
</svg>
