<svg xmlns="http://www.w3.org/2000/svg" fill="none" viewBox="0 0 56 56" height="56" width="56">
<rect fill="black" rx="8" height="56" width="56"></rect>
<g clip-path="url(#clip0_2012_1023)">
<path fill="white" d="M40.6002 17.5001C40.6002 19.8167 42.4837 21.7001 44.8002 21.7001V19.6001C44.8002 18.4386 43.8618 17.5001 42.7002 17.5001H40.6002ZM38.5002 17.5001H17.5002C17.5002 20.9783 14.6783 23.8001 11.2002 23.8001V32.2001C14.6783 32.2001 17.5002 35.022 17.5002 38.5001H38.5002C38.5002 35.022 41.3221 32.2001 44.8002 32.2001V23.8001C41.3221 23.8001 38.5002 20.9783 38.5002 17.5001ZM11.2002 36.4001C11.2002 37.5617 12.1387 38.5001 13.3002 38.5001H15.4002C15.4002 36.1836 13.5168 34.3001 11.2002 34.3001V36.4001ZM44.8002 34.3001C42.4837 34.3001 40.6002 36.1836 40.6002 38.5001H42.7002C43.8618 38.5001 44.8002 37.5617 44.8002 36.4001V34.3001ZM13.3002 17.5001C12.1387 17.5001 11.2002 18.4386 11.2002 19.6001V21.7001C13.5168 21.7001 15.4002 19.8167 15.4002 17.5001H13.3002ZM9.10022 19.6001C9.10022 17.2836 10.9837 15.4001 13.3002 15.4001H42.7002C45.0168 15.4001 46.9002 17.2836 46.9002 19.6001V36.4001C46.9002 38.7167 45.0168 40.6001 42.7002 40.6001H13.3002C10.9837 40.6001 9.10022 38.7167 9.10022 36.4001V19.6001ZM32.2002 28.0001C32.2002 26.8862 31.7577 25.818 30.9701 25.0303C30.1824 24.2426 29.1141 23.8001 28.0002 23.8001C26.8863 23.8001 25.818 24.2426 25.0304 25.0303C24.2427 25.818 23.8002 26.8862 23.8002 28.0001C23.8002 29.1141 24.2427 30.1823 25.0304 30.97C25.818 31.7576 26.8863 32.2001 28.0002 32.2001C29.1141 32.2001 30.1824 31.7576 30.9701 30.97C31.7577 30.1823 32.2002 29.1141 32.2002 28.0001ZM21.7002 28.0001C21.7002 26.3293 22.364 24.7269 23.5454 23.5454C24.7269 22.3639 26.3294 21.7001 28.0002 21.7001C29.6711 21.7001 31.2735 22.3639 32.455 23.5454C33.6365 24.7269 34.3002 26.3293 34.3002 28.0001C34.3002 29.671 33.6365 31.2734 32.455 32.4549C31.2735 33.6364 29.6711 34.3001 28.0002 34.3001C26.3294 34.3001 24.7269 33.6364 23.5454 32.4549C22.364 31.2734 21.7002 29.671 21.7002 28.0001Z"></path>
</g>
<defs>
<clipPath id="clip0_2012_1023">
<rect transform="translate(9.09985 11.2002)" fill="white" height="33.6" width="37.8"></rect>
</clipPath>
</defs>
</svg>
