<svg xmlns="http://www.w3.org/2000/svg" fill="none" viewBox="0 0 56 56" height="56" width="56">
<rect fill="black" rx="8" height="56" width="56"></rect>
<path stroke-linejoin="round" stroke-linecap="round" stroke-width="2" stroke="white" d="M28 18.4V44M28 18.4H22.3429C21.5093 18.4 20.7099 18.0629 20.1205 17.4627C19.5311 16.8626 19.2 16.0487 19.2 15.2C19.2 14.3513 19.5311 13.5374 20.1205 12.9373C20.7099 12.3371 21.5093 12 22.3429 12C26.7429 12 28 18.4 28 18.4ZM28 18.4H33.6571C34.4907 18.4 35.2901 18.0629 35.8795 17.4627C36.4689 16.8626 36.8 16.0487 36.8 15.2C36.8 14.3513 36.4689 13.5374 35.8795 12.9373C35.2901 12.3371 34.4907 12 33.6571 12C29.2571 12 28 18.4 28 18.4ZM40.8 26.4V38.88C40.8 40.6722 40.8 41.5683 40.4512 42.2528C40.1444 42.8549 39.6549 43.3444 39.0528 43.6512C38.3682 44 37.4722 44 35.68 44L20.32 44C18.5278 44 17.6317 44 16.9472 43.6512C16.3451 43.3444 15.8556 42.8549 15.5488 42.2528C15.2 41.5682 15.2 40.6722 15.2 38.88V26.4M12 20.96L12 23.84C12 24.7361 12 25.1841 12.1744 25.5264C12.3278 25.8274 12.5726 26.0722 12.8736 26.2256C13.2159 26.4 13.6639 26.4 14.56 26.4L41.44 26.4C42.3361 26.4 42.7841 26.4 43.1264 26.2256C43.4274 26.0722 43.6722 25.8274 43.8256 25.5264C44 25.1841 44 24.7361 44 23.84V20.96C44 20.0639 44 19.6159 43.8256 19.2736C43.6722 18.9726 43.4274 18.7278 43.1264 18.5744C42.7841 18.4 42.3361 18.4 41.44 18.4L14.56 18.4C13.6639 18.4 13.2159 18.4 12.8736 18.5744C12.5726 18.7278 12.3278 18.9726 12.1744 19.2736C12 19.6159 12 20.0639 12 20.96Z"></path>
</svg>
